<?xml version="1.0" encoding="utf-8"?>
<!-- Generator: Adobe Illustrator 19.2.1, SVG Export Plug-In . SVG Version: 6.00 Build 0)  -->
<svg version="1.1" id="Livello_1" xmlns="http://www.w3.org/2000/svg" xmlns:xlink="http://www.w3.org/1999/xlink" x="0px" y="0px"
	 viewBox="0 0 99.2 99.2" style="enable-background:new 0 0 99.2 99.2;" xml:space="preserve">
<style type="text/css">
	.st0{fill:#505053;}
	.st1{fill:#EA7E27;}
</style>
<path class="st0" d="M34.1,43c0,0-16,15.4-8.5,39.7c6.5,21.2,28.6,18.5,27.6,7.1c-0.9-9.3-8.2-6.4-14.3-17.9
	C29.8,55,34.1,43,34.1,43"/>
<path class="st0" d="M48.5,26.4c0,0-19.4-8.3-37.9,7.3c-16.2,13.6-5.5,32,4,26.8c7.8-4.2,2.6-9.6,10.3-19.2
	C36.4,27.2,48.5,26.4,48.5,26.4"/>
<path class="st0" d="M71.1,36.6c0,0,1.5-20-18.3-31.9C35.6-5.7,22.4,9.5,30,16.5c6.2,5.7,9.4-0.6,20.5,3.4
	C66.7,25.9,71.1,36.6,71.1,36.6"/>
<path class="st1" d="M71.9,62.4c0,0,19.5-4.9,24.6-27.3C101,15.4,82.3,7.6,78.1,17c-3.5,7.7,3.6,8.7,3.2,20.5
	C80.7,54.8,71.9,62.4,71.9,62.4"/>
</svg>
