<?xml version="1.0" standalone="no"?>
<!DOCTYPE svg PUBLIC "-//W3C//DTD SVG 20010904//EN"
 "http://www.w3.org/TR/2001/REC-SVG-20010904/DTD/svg10.dtd">
<svg version="1.0" xmlns="http://www.w3.org/2000/svg"
 width="84.000000pt" height="80.000000pt" viewBox="0 0 84.000000 80.000000"
 preserveAspectRatio="xMidYMid meet">

<g transform="translate(0.000000,80.000000) scale(0.100000,-0.100000)"
fill="#000000" stroke="none">
<path d="M152 673 l-57 -56 60 53 c33 30 62 55 64 57 2 2 1 3 -3 3 -4 0 -33
-25 -64 -57z"/>
<path d="M332 696 c-23 -8 -53 -20 -65 -28 -12 -8 -40 -19 -63 -26 -35 -10
-114 -74 -114 -92 0 -3 12 -6 28 -5 22 0 26 -4 24 -20 -23 -139 -8 -215 60
-305 23 -30 42 -64 43 -74 2 -30 25 -32 25 -2 0 15 8 31 20 38 11 7 20 19 20
25 0 10 -4 11 -19 2 -39 -25 -75 21 -87 115 -14 99 83 196 196 196 72 0 118
-22 172 -83 44 -48 48 -50 48 -27 0 14 9 43 20 65 28 57 26 107 -5 144 -59 70
-209 108 -303 77z m298 -186 c0 -5 -4 -10 -10 -10 -5 0 -10 5 -10 10 0 6 5 10
10 10 6 0 10 -4 10 -10z"/>
<path d="M685 670 c21 -22 41 -40 44 -40 3 0 -13 18 -34 40 -21 22 -41 40 -44
40 -3 0 13 -18 34 -40z"/>
<path d="M409 165 c-19 -14 -46 -33 -61 -42 -36 -23 -35 -29 3 -37 74 -14 166
-1 117 17 -24 9 7 42 36 39 35 -4 33 14 -4 33 -39 20 -51 19 -91 -10z"/>
<path d="M90 176 c0 -2 8 -10 18 -17 15 -13 16 -12 3 4 -13 16 -21 21 -21 13z"/>
<path d="M676 113 c-33 -31 -51 -51 -40 -45 18 10 113 102 104 102 -3 -1 -32
-26 -64 -57z"/>
<path d="M135 120 c10 -11 20 -20 23 -20 3 0 -3 9 -13 20 -10 11 -20 20 -23
20 -3 0 3 -9 13 -20z"/>
<path d="M525 110 c-16 -11 -26 -20 -22 -20 13 0 77 29 77 34 0 12 -26 5 -55
-14z"/>
<path d="M170 96 c0 -2 8 -10 18 -17 15 -13 16 -12 3 4 -13 16 -21 21 -21 13z"/>
<path d="M590 50 c-9 -6 -10 -10 -3 -10 6 0 15 5 18 10 8 12 4 12 -15 0z"/>
</g>
</svg>
