<?xml version="1.0" encoding="UTF-8" standalone="no"?>
<!DOCTYPE svg PUBLIC "-//W3C//DTD SVG 1.1//EN" "http://www.w3.org/Graphics/SVG/1.1/DTD/svg11.dtd">
<svg xmlns="http://www.w3.org/2000/svg" version="1.1" viewBox="0.00 0.00 309.00 106.00">
<g stroke-width="2.00" fill="none" stroke-linecap="butt">
<path stroke="#95a8d3" vector-effect="non-scaling-stroke" d="
  M 309.00 60.02
  L 81.49 60.01
  Q 81.08 60.01 80.73 60.22
  Q 80.52 60.34 80.34 60.34
  Q 79.79 60.33 79.84 59.79
  Q 80.12 56.69 79.20 54.01
  Q 78.17 51.03 78.11 50.84
  C 68.82 17.45 24.93 10.29 6.52 39.71
  Q -1.88 53.13 0.78 66.94
  Q 4.08 84.06 18.51 93.74
  Q 24.57 97.80 32.60 99.36
  C 35.65 99.95 38.74 99.70 41.74 99.78
  Q 45.03 99.86 48.29 99.13
  C 63.69 95.67 75.14 83.78 78.60 68.41
  Q 78.65 68.22 78.76 68.05
  Q 78.88 67.86 79.05 67.72
  Q 79.41 67.44 79.46 66.99
  L 79.96 62.00
  Q 79.99 61.70 80.30 61.72
  Q 80.54 61.74 80.74 61.88
  A 0.87 0.83 61.1 0 0 81.22 62.03
  L 309.00 62.03"
/>
<path stroke="#95a8d3" vector-effect="non-scaling-stroke" d="
  M 127.21 47.74
  A 0.38 0.38 0.0 0 1 127.57 47.49
  L 135.98 47.48
  A 0.38 0.38 0.0 0 1 136.34 47.73
  L 138.48 53.73
  A 0.38 0.38 0.0 0 0 138.84 53.98
  L 142.11 54.01
  A 0.38 0.38 0.0 0 0 142.47 53.49
  L 133.99 30.78
  A 0.38 0.38 0.0 0 0 133.64 30.53
  L 130.02 30.51
  A 0.38 0.38 0.0 0 0 129.66 30.76
  L 121.19 53.48
  A 0.38 0.38 0.0 0 0 121.55 53.99
  L 124.76 54.00
  A 0.38 0.38 0.0 0 0 125.12 53.74
  L 127.21 47.74"
/>
<path stroke="#95a8d3" vector-effect="non-scaling-stroke" d="
  M 144.97 30.82
  L 145.01 53.72
  A 0.27 0.27 0.0 0 0 145.28 53.99
  L 153.12 53.97
  A 10.91 10.35 -0.1 0 0 164.01 43.60
  L 164.01 40.86
  A 10.91 10.35 -0.1 0 0 153.08 30.53
  L 145.24 30.55
  A 0.27 0.27 0.0 0 0 144.97 30.82"
/>
<path stroke="#95a8d3" vector-effect="non-scaling-stroke" d="
  M 173.77 44.71
  L 176.03 44.75
  Q 176.76 44.76 177.13 45.39
  L 181.72 53.08
  Q 182.27 54.00 183.34 54.00
  L 185.77 54.00
  Q 186.66 54.00 186.18 53.25
  L 180.40 44.29
  Q 180.01 43.69 180.65 43.37
  Q 183.96 41.76 184.39 38.73
  Q 185.42 31.57 177.89 30.77
  Q 173.82 30.34 169.65 30.53
  Q 169.01 30.56 169.01 31.20
  L 169.01 53.51
  Q 169.01 54.00 169.51 54.00
  L 172.50 54.00
  Q 173.00 53.99 173.00 53.50
  L 172.99 45.48
  Q 172.99 44.70 173.77 44.71"
/>
<path stroke="#95a8d3" vector-effect="non-scaling-stroke" d="
  M 194.00 31.09
  A 0.57 0.57 0.0 0 0 193.43 30.52
  L 190.59 30.52
  A 0.57 0.57 0.0 0 0 190.02 31.09
  L 190.02 53.43
  A 0.57 0.57 0.0 0 0 190.59 54.00
  L 193.43 54.00
  A 0.57 0.57 0.0 0 0 194.00 53.43
  L 194.00 31.09"
/>
<path stroke="#95a8d3" vector-effect="non-scaling-stroke" d="
  M 203.19 47.75
  A 0.38 0.38 0.0 0 1 203.55 47.49
  L 211.99 47.48
  A 0.38 0.38 0.0 0 1 212.35 47.73
  L 214.47 53.74
  A 0.38 0.38 0.0 0 0 214.83 53.99
  L 218.11 54.00
  A 0.38 0.38 0.0 0 0 218.47 53.49
  L 209.99 30.78
  A 0.38 0.38 0.0 0 0 209.64 30.53
  L 206.00 30.52
  A 0.38 0.38 0.0 0 0 205.65 30.77
  L 197.20 53.48
  A 0.38 0.38 0.0 0 0 197.56 53.99
  L 200.77 54.00
  A 0.38 0.38 0.0 0 0 201.13 53.74
  L 203.19 47.75"
/>
<path stroke="#95a8d3" vector-effect="non-scaling-stroke" d="
  M 225.75 35.95
  L 236.56 53.47
  Q 236.88 54.00 237.51 54.00
  L 240.74 54.00
  Q 241.48 54.00 241.48 53.26
  L 241.48 30.74
  A 0.24 0.24 0.0 0 0 241.24 30.50
  L 238.28 30.54
  Q 238.08 30.54 238.07 30.74
  Q 237.77 39.53 238.29 48.05
  Q 238.37 49.46 237.63 48.25
  L 226.87 30.85
  Q 226.66 30.51 226.25 30.51
  L 222.74 30.52
  Q 222.00 30.53 222.00 31.26
  L 222.00 53.76
  A 0.26 0.25 0.0 0 0 222.26 54.01
  L 225.26 53.98
  Q 225.50 53.98 225.50 53.74
  L 225.44 36.04
  Q 225.44 35.44 225.75 35.95"
/>
<path stroke="#95a8d3" vector-effect="non-scaling-stroke" d="
  M 251.21 47.74
  A 0.38 0.38 0.0 0 1 251.57 47.49
  L 259.98 47.47
  A 0.38 0.38 0.0 0 1 260.34 47.72
  L 262.48 53.74
  A 0.38 0.38 0.0 0 0 262.84 53.99
  L 266.11 54.00
  A 0.38 0.38 0.0 0 0 266.47 53.49
  L 257.99 30.77
  A 0.38 0.38 0.0 0 0 257.64 30.52
  L 254.01 30.51
  A 0.38 0.38 0.0 0 0 253.66 30.76
  L 245.19 53.49
  A 0.38 0.38 0.0 0 0 245.55 54.00
  L 248.76 53.99
  A 0.38 0.38 0.0 0 0 249.12 53.74
  L 251.21 47.74"
/>
<path stroke="#a9a9a9" vector-effect="non-scaling-stroke" d="
  M 149.46 77.45
  Q 147.03 78.43 144.57 77.33
  A 0.37 0.37 0.0 0 0 144.05 77.61
  L 143.99 78.00
  Q 143.90 78.56 144.43 78.77
  C 146.36 79.54 150.75 79.61 151.53 76.97
  C 153.14 71.52 145.35 73.38 145.74 69.68
  Q 145.86 68.58 146.94 68.36
  Q 148.78 67.98 150.34 68.62
  A 0.45 0.44 -67.7 0 0 150.92 68.37
  L 151.12 67.88
  Q 151.30 67.45 150.86 67.28
  Q 148.48 66.40 146.13 67.20
  C 143.68 68.03 143.53 71.15 145.49 72.54
  C 147.21 73.76 150.75 73.70 150.15 76.63
  A 1.16 1.15 -5.0 0 1 149.46 77.45"
/>
<path stroke="#a9a9a9" vector-effect="non-scaling-stroke" d="
  M 257.62 74.12
  Q 259.40 75.58 258.90 76.52
  Q 258.07 78.04 256.17 77.93
  Q 254.76 77.84 253.29 77.48
  Q 252.34 77.24 252.69 78.16
  Q 252.80 78.45 253.07 78.60
  Q 255.81 80.00 258.48 78.73
  C 260.92 77.56 261.39 74.01 258.64 73.01
  Q 256.91 72.39 255.26 71.44
  A 1.67 1.66 54.4 0 1 255.77 68.36
  Q 257.48 68.04 259.33 68.57
  A 0.45 0.45 0.0 0 0 259.89 68.08
  L 259.85 67.73
  Q 259.77 67.11 259.15 67.03
  Q 257.51 66.82 256.12 66.85
  C 254.31 66.88 252.56 68.55 252.99 70.47
  Q 253.55 72.93 256.85 73.74
  A 1.89 1.88 -18.6 0 1 257.62 74.12"
/>
<path stroke="#a9a9a9" vector-effect="non-scaling-stroke" d="
  M 96.8797 67.4613
  A 0.43 0.43 0.0 0 0 96.4504 67.0305
  L 95.8704 67.0295
  A 0.43 0.43 0.0 0 0 95.4397 67.4588
  L 95.4203 78.5187
  A 0.43 0.43 0.0 0 0 95.8496 78.9495
  L 96.4296 78.9505
  A 0.43 0.43 0.0 0 0 96.8603 78.5212
  L 96.8797 67.4613"
/>
<path stroke="#a9a9a9" vector-effect="non-scaling-stroke" d="
  M 101.77 70.22
  L 104.54 77.47
  Q 105.78 80.73 106.99 77.46
  Q 108.58 73.19 109.95 69.75
  Q 110.06 69.47 110.28 69.26
  Q 110.33 69.21 110.33 69.29
  L 110.08 78.28
  A 0.71 0.70 1.2 0 0 110.78 79.00
  L 111.16 79.00
  Q 111.83 79.00 111.83 78.34
  L 111.83 67.94
  Q 111.83 67.02 110.93 66.90
  Q 109.68 66.74 109.25 67.87
  Q 107.70 72.01 106.11 76.02
  Q 105.80 76.79 105.50 76.02
  L 102.23 67.53
  A 0.91 0.91 0.0 0 0 101.58 66.96
  Q 101.05 66.83 100.51 66.94
  Q 99.92 67.07 99.93 67.67
  L 99.95 78.76
  Q 99.95 79.07 100.26 79.06
  L 100.89 79.03
  Q 101.29 79.02 101.30 78.61
  L 101.38 70.29
  Q 101.39 69.22 101.77 70.22"
/>
<path stroke="#a9a9a9" vector-effect="non-scaling-stroke" d="
  M 117.18 74.24
  C 120.28 74.81 123.22 73.31 122.74 69.90
  Q 122.41 67.60 120.11 67.25
  Q 119.45 67.15 117.27 66.83
  Q 115.16 66.52 115.16 68.65
  L 115.15 78.51
  Q 115.14 79.04 115.67 79.01
  L 115.95 78.99
  A 0.68 0.68 0.0 0 0 116.59 78.30
  L 116.52 74.80
  A 0.56 0.56 0.0 0 1 117.18 74.24"
/>
<path stroke="#a9a9a9" vector-effect="non-scaling-stroke" d="
  M 130.84 73.51
  L 131.48 73.08
  Q 131.92 72.80 132.20 72.36
  Q 133.26 70.66 132.47 68.82
  C 131.50 66.56 127.83 66.84 125.81 67.00
  Q 125.15 67.05 125.15 67.71
  L 125.16 78.42
  Q 125.16 78.98 125.72 78.98
  L 126.10 78.98
  Q 126.60 78.98 126.59 78.47
  L 126.52 74.70
  A 0.69 0.68 1.2 0 1 127.26 74.00
  Q 127.73 74.03 128.18 74.01
  Q 129.12 73.98 129.60 74.98
  Q 130.54 76.89 131.63 78.66
  Q 131.92 79.14 132.48 79.07
  L 133.10 79.00
  Q 133.65 78.93 133.36 78.47
  L 130.69 74.20
  Q 130.42 73.78 130.84 73.51"
/>
<path stroke="#a9a9a9" vector-effect="non-scaling-stroke" d="
  M 136.86 68.58
  A 0.27 0.27 0.0 0 1 137.13 68.31
  L 141.71 68.35
  A 0.27 0.27 0.0 0 0 141.98 68.10
  L 142.04 67.24
  A 0.27 0.27 0.0 0 0 141.77 66.95
  L 135.72 66.96
  A 0.27 0.27 0.0 0 0 135.45 67.23
  L 135.47 78.78
  A 0.27 0.27 0.0 0 0 135.74 79.05
  L 141.79 79.04
  A 0.27 0.27 0.0 0 0 142.06 78.75
  L 142.01 77.93
  A 0.27 0.27 0.0 0 0 141.74 77.68
  L 137.07 77.68
  A 0.27 0.27 0.0 0 1 136.80 77.41
  L 136.87 73.62
  A 0.27 0.27 0.0 0 1 137.13 73.36
  L 141.57 73.34
  A 0.27 0.27 0.0 0 0 141.83 73.05
  L 141.78 72.46
  A 0.27 0.27 0.0 0 0 141.52 72.21
  L 137.11 72.11
  A 0.27 0.27 0.0 0 1 136.85 71.84
  L 136.86 68.58"
/>
<path stroke="#a9a9a9" vector-effect="non-scaling-stroke" d="
  M 155.72 75.30
  L 159.32 75.30
  Q 159.95 75.30 160.17 75.90
  L 161.09 78.46
  Q 161.33 79.13 162.04 79.00
  L 162.47 78.92
  Q 162.87 78.85 162.72 78.47
  L 158.67 68.23
  Q 157.55 65.37 156.42 68.23
  L 152.44 78.34
  Q 152.20 78.95 152.85 78.96
  L 153.18 78.97
  Q 153.79 78.98 153.99 78.41
  L 154.88 75.89
  Q 155.09 75.29 155.72 75.30"
/>
<path stroke="#a9a9a9" vector-effect="non-scaling-stroke" d="
  M 168.96 67.33
  L 168.94 78.63
  A 0.40 0.40 0.0 0 0 169.34 79.03
  L 172.86 79.04
  A 5.67 5.66 -89.9 0 0 178.53 73.38
  L 178.53 72.62
  A 5.67 5.66 -89.9 0 0 172.88 66.94
  L 169.36 66.93
  A 0.40 0.40 0.0 0 0 168.96 67.33"
/>
<path stroke="#a9a9a9" vector-effect="non-scaling-stroke" d="
  M 182.57 67.45
  A 0.41 0.41 0.0 0 0 182.16 67.04
  L 181.54 67.04
  A 0.41 0.41 0.0 0 0 181.13 67.45
  L 181.13 78.55
  A 0.41 0.41 0.0 0 0 181.54 78.96
  L 182.16 78.96
  A 0.41 0.41 0.0 0 0 182.57 78.55
  L 182.57 67.45"
/>
<path stroke="#a9a9a9" vector-effect="non-scaling-stroke" d="
  M 192.24 74.28
  C 195.28 74.67 198.16 73.40 197.73 69.97
  Q 197.44 67.64 195.12 67.22
  Q 193.49 66.92 191.76 66.82
  Q 190.17 66.73 190.17 68.32
  L 190.14 78.33
  A 0.66 0.66 0.0 0 0 190.84 78.99
  L 191.20 78.98
  Q 191.61 78.95 191.60 78.55
  L 191.51 74.93
  A 0.65 0.65 0.0 0 1 192.24 74.28"
/>
<path stroke="#a9a9a9" vector-effect="non-scaling-stroke" d="
  M 204.29 77.93
  Q 201.51 77.82 201.51 75.04
  L 201.52 67.26
  Q 201.52 67.01 201.26 67.00
  L 200.26 66.95
  Q 199.95 66.94 199.95 67.25
  L 199.93 74.30
  Q 199.92 78.65 204.24 79.24
  Q 204.58 79.29 204.91 79.25
  Q 209.29 78.75 209.31 74.34
  L 209.34 67.51
  A 0.56 0.56 0.0 0 0 208.77 66.95
  L 208.23 66.95
  Q 207.68 66.96 207.68 67.52
  L 207.68 75.07
  Q 207.68 78.07 204.68 77.95
  L 204.29 77.93"
/>
<path stroke="#a9a9a9" vector-effect="non-scaling-stroke" d="
  M 214.08 77.69
  A 0.29 0.29 0.0 0 1 213.79 77.40
  L 213.81 67.33
  A 0.29 0.29 0.0 0 0 213.51 67.04
  L 212.74 67.05
  A 0.29 0.29 0.0 0 0 212.46 67.34
  L 212.47 78.76
  A 0.29 0.29 0.0 0 0 212.76 79.05
  L 218.77 79.05
  A 0.29 0.29 0.0 0 0 219.06 78.73
  L 218.99 77.94
  A 0.29 0.29 0.0 0 0 218.70 77.67
  L 214.08 77.69"
/>
<path stroke="#a9a9a9" vector-effect="non-scaling-stroke" d="
  M 222.57 67.48
  A 0.44 0.44 0.0 0 0 222.13 67.04
  L 221.57 67.04
  A 0.44 0.44 0.0 0 0 221.13 67.48
  L 221.13 78.54
  A 0.44 0.44 0.0 0 0 221.57 78.98
  L 222.13 78.98
  A 0.44 0.44 0.0 0 0 222.57 78.54
  L 222.57 67.48"
/>
<path stroke="#a9a9a9" vector-effect="non-scaling-stroke" d="
  M 227.10 77.03
  L 233.07 68.04
  A 0.70 0.70 0.0 0 0 232.49 66.95
  L 225.39 66.94
  Q 224.97 66.94 224.97 67.36
  L 224.98 67.91
  Q 224.99 68.33 225.41 68.33
  L 230.72 68.30
  A 0.28 0.28 0.0 0 1 230.95 68.74
  L 224.99 77.70
  A 0.88 0.88 0.0 0 0 225.73 79.07
  L 232.91 79.03
  Q 233.34 79.03 233.35 78.60
  L 233.36 78.28
  A 0.56 0.56 0.0 0 0 232.79 77.69
  L 227.46 77.70
  Q 226.65 77.70 227.10 77.03"
/>
<path stroke="#a9a9a9" vector-effect="non-scaling-stroke" d="
  M 236.8403 67.4688
  A 0.44 0.44 0.0 0 0 236.3996 67.0296
  L 235.8796 67.0305
  A 0.44 0.44 0.0 0 0 235.4403 67.4712
  L 235.4597 78.5512
  A 0.44 0.44 0.0 0 0 235.9004 78.9904
  L 236.4204 78.9895
  A 0.44 0.44 0.0 0 0 236.8597 78.5488
  L 236.8403 67.4688"
/>
<path stroke="#a9a9a9" vector-effect="non-scaling-stroke" d="
  M 241.57 77.69
  A 0.27 0.27 0.0 0 1 241.30 77.42
  L 241.34 73.61
  A 0.27 0.27 0.0 0 1 241.61 73.34
  L 246.10 73.34
  A 0.27 0.27 0.0 0 0 246.37 73.04
  L 246.30 72.44
  A 0.27 0.27 0.0 0 0 246.03 72.21
  L 241.61 72.14
  A 0.27 0.27 0.0 0 1 241.35 71.88
  L 241.29 68.59
  A 0.27 0.27 0.0 0 1 241.56 68.32
  L 246.28 68.31
  A 0.27 0.27 0.0 0 0 246.54 68.00
  L 246.42 67.20
  A 0.27 0.27 0.0 0 0 246.16 66.97
  L 240.21 66.95
  A 0.27 0.27 0.0 0 0 239.94 67.22
  L 239.95 78.81
  A 0.27 0.27 0.0 0 0 240.22 79.08
  L 246.18 79.00
  A 0.27 0.27 0.0 0 0 246.44 78.80
  L 246.63 78.04
  A 0.27 0.27 0.0 0 0 246.37 77.71
  L 241.57 77.69"
/>
<path stroke="#a9a9a9" vector-effect="non-scaling-stroke" d="
  M 269.26 74.01
  C 270.33 73.92 271.47 73.99 271.98 75.11
  Q 272.86 77.04 274.01 78.74
  A 0.85 0.85 0.0 0 0 274.95 79.09
  L 275.35 78.98
  Q 275.84 78.84 275.57 78.41
  L 272.88 74.14
  Q 272.58 73.67 273.10 73.46
  Q 274.87 72.76 274.97 70.74
  C 275.18 66.46 270.95 66.83 268.04 66.95
  Q 267.47 66.97 267.47 67.54
  L 267.47 78.49
  Q 267.47 79.01 267.99 78.99
  L 268.45 78.98
  Q 268.85 78.97 268.85 78.56
  L 268.79 74.52
  Q 268.78 74.04 269.26 74.01"
/>
<path stroke="#a9a9a9" vector-effect="non-scaling-stroke" d="
  M 283.80 77.66
  A 0.29 0.29 0.0 0 1 283.51 77.37
  L 283.59 67.33
  A 0.29 0.29 0.0 0 0 283.28 67.03
  L 282.36 67.08
  A 0.29 0.29 0.0 0 0 282.08 67.37
  L 282.24 78.79
  A 0.29 0.29 0.0 0 0 282.53 79.07
  L 288.68 78.97
  A 0.29 0.29 0.0 0 0 288.95 78.61
  L 288.78 77.93
  A 0.29 0.29 0.0 0 0 288.51 77.71
  L 283.80 77.66"
/>
<path stroke="#a9a9a9" vector-effect="non-scaling-stroke" d="
  M 264.64 78.10
  A 1.13 1.13 0.0 0 0 263.51 76.97
  A 1.13 1.13 0.0 0 0 262.38 78.10
  A 1.13 1.13 0.0 0 0 263.51 79.23
  A 1.13 1.13 0.0 0 0 264.64 78.10"
/>
<path stroke="#a9a9a9" vector-effect="non-scaling-stroke" d="
  M 279.40 78.15
  A 1.13 1.13 0.0 0 0 278.27 77.02
  A 1.13 1.13 0.0 0 0 277.14 78.15
  A 1.13 1.13 0.0 0 0 278.27 79.28
  A 1.13 1.13 0.0 0 0 279.40 78.15"
/>
<path stroke="#a9a9a9" vector-effect="non-scaling-stroke" d="
  M 291.4388 79.3085
  A 1.21 1.05 92.9 0 0 292.5487 78.1531
  A 1.21 1.05 92.9 0 0 291.5612 76.8915
  A 1.21 1.05 92.9 0 0 290.4513 78.0469
  A 1.21 1.05 92.9 0 0 291.4388 79.3085"
/>
<path stroke="#95a8d3" vector-effect="non-scaling-stroke" d="
  M 78.11 60.60
  A 38.27 38.27 0.0 0 0 39.84 22.33
  A 38.27 38.27 0.0 0 0 1.57 60.60
  A 38.27 38.27 0.0 0 0 39.84 98.87
  A 38.27 38.27 0.0 0 0 78.11 60.60"
/>
<path stroke="#f8fd80" vector-effect="non-scaling-stroke" d="
  M 12.60 45.23
  Q 5.81 55.54 8.81 67.76
  Q 11.78 79.80 21.90 86.92"
/>
<path stroke="#95a8d3" vector-effect="non-scaling-stroke" d="
  M 21.90 86.92
  L 24.25 88.41"
/>
<path stroke="#f8fd80" vector-effect="non-scaling-stroke" d="
  M 24.25 88.41
  L 28.12 90.26"
/>
<path stroke="#95a8d3" vector-effect="non-scaling-stroke" d="
  M 28.12 90.26
  Q 42.76 95.69 56.09 88.05"
/>
<path stroke="#f8fd80" vector-effect="non-scaling-stroke" d="
  M 56.09 88.05
  Q 68.27 80.59 71.07 67.25
  Q 74.43 51.32 63.28 39.37"
/>
<path stroke="#95a8d3" vector-effect="non-scaling-stroke" d="
  M 63.28 39.37
  Q 61.87 38.19 60.41 36.81
  Q 58.73 35.23 57.44 34.38
  Q 41.03 23.59 24.19 33.24
  Q 22.00 34.49 19.69 35.03
  Q 11.44 36.94 6.74 44.77
  Q 6.32 45.47 6.84 46.12
  Q 7.17 46.52 7.65 46.32
  Q 8.62 45.90 9.58 45.35
  Q 10.13 45.05 12.60 45.23"
/>
<path stroke="#8ea554" vector-effect="non-scaling-stroke" d="
  M 63.28 39.37
  Q 65.46 45.40 63.69 49.45
  C 62.76 51.58 60.77 54.00 60.57 56.36
  Q 60.46 57.74 60.53 59.14
  Q 60.61 60.69 59.15 60.64
  A 1.96 1.96 0.0 0 1 57.44 59.54
  Q 52.59 49.57 40.79 48.07
  Q 27.92 46.43 20.11 58.69
  C 16.55 64.29 18.69 75.61 23.61 80.10
  A 0.90 0.88 -31.2 0 0 24.48 80.30
  Q 26.57 79.70 28.59 78.18
  A 0.62 0.62 0.0 0 1 29.58 78.61
  C 29.91 81.74 24.76 80.36 25.50 84.67
  C 25.75 86.09 25.23 87.40 24.25 88.41"
/>
<path stroke="#8ea554" vector-effect="non-scaling-stroke" d="
  M 21.90 86.92
  Q 23.44 84.33 21.98 82.77
  Q 18.27 78.79 16.69 76.57
  Q 7.10 63.06 12.60 45.23"
/>
<path stroke="#8ea554" vector-effect="non-scaling-stroke" d="
  M 56.09 88.05
  C 55.34 86.32 53.50 86.34 52.35 87.52
  C 50.56 89.35 47.24 91.87 44.83 89.83
  A 2.01 2.00 -52.5 0 1 44.48 87.14
  Q 46.78 83.90 49.55 86.47
  Q 50.29 87.16 50.76 86.26
  Q 51.40 85.01 50.02 83.67
  A 9.84 7.72 76.9 0 0 48.69 82.60
  C 43.12 78.99 38.45 82.56 34.17 86.94
  Q 32.95 88.19 28.12 90.26"
/>
<path stroke="#8ea554" vector-effect="non-scaling-stroke" d="
  M 60.2571 50.0299
  A 1.09 0.96 89.1 0 0 61.1999 48.9249
  A 1.09 0.96 89.1 0 0 60.2229 47.8501
  A 1.09 0.96 89.1 0 0 59.2801 48.9551
  A 1.09 0.96 89.1 0 0 60.2571 50.0299"
/>
<path stroke="#95a8d3" vector-effect="non-scaling-stroke" d="
  M 128.47 43.93
  A 0.24 0.23 10.9 0 0 128.69 44.25
  L 134.57 44.26
  Q 135.21 44.26 135.01 43.65
  L 132.04 34.74
  Q 131.76 33.90 131.53 34.75
  Q 130.37 39.10 128.47 43.93"
/>
<path stroke="#95a8d3" vector-effect="non-scaling-stroke" d="
  M 148.96 34.11
  L 148.98 50.37
  A 0.38 0.38 0.0 0 0 149.36 50.75
  L 152.68 50.74
  A 7.34 7.12 -0.1 0 0 160.01 43.61
  L 160.01 40.83
  A 7.34 7.12 -0.1 0 0 152.66 33.72
  L 149.34 33.73
  A 0.38 0.38 0.0 0 0 148.96 34.11"
/>
<path stroke="#95a8d3" vector-effect="non-scaling-stroke" d="
  M 172.94 34.42
  L 173.00 40.94
  A 0.64 0.64 0.0 0 0 173.64 41.58
  L 176.02 41.56
  A 4.72 3.63 -0.5 0 0 180.71 37.89
  L 180.71 37.35
  A 4.72 3.63 -0.5 0 0 175.96 33.76
  L 173.58 33.78
  A 0.64 0.64 0.0 0 0 172.94 34.42"
/>
<path stroke="#95a8d3" vector-effect="non-scaling-stroke" d="
  M 204.52 43.98
  A 0.20 0.20 0.0 0 0 204.71 44.25
  L 210.57 44.26
  Q 211.21 44.26 211.01 43.65
  L 208.06 34.77
  Q 207.87 34.20 207.67 34.77
  L 204.52 43.98"
/>
<path stroke="#95a8d3" vector-effect="non-scaling-stroke" d="
  M 256.16 34.84
  A 0.34 0.34 0.0 0 0 255.52 34.84
  L 252.63 43.83
  A 0.34 0.34 0.0 0 0 252.96 44.27
  L 258.72 44.28
  A 0.34 0.34 0.0 0 0 259.05 43.84
  L 256.16 34.84"
/>
<path stroke="#a9a9a9" vector-effect="non-scaling-stroke" d="
  M 116.51 68.64
  L 116.51 72.64
  A 0.33 0.33 0.0 0 0 116.84 72.97
  L 118.87 72.97
  A 2.32 2.05 0.0 0 0 121.19 70.92
  L 121.19 70.36
  A 2.32 2.05 0.0 0 0 118.87 68.31
  L 116.84 68.31
  A 0.33 0.33 0.0 0 0 116.51 68.64"
/>
<path stroke="#a9a9a9" vector-effect="non-scaling-stroke" d="
  M 126.52 68.76
  L 126.52 72.28
  A 0.41 0.41 0.0 0 0 126.93 72.69
  L 129.12 72.69
  A 2.12 1.81 -0.1 0 0 131.24 70.88
  L 131.24 70.16
  A 2.12 1.81 -0.1 0 0 129.12 68.35
  L 126.93 68.35
  A 0.41 0.41 0.0 0 0 126.52 68.76"
/>
<path stroke="#a9a9a9" vector-effect="non-scaling-stroke" d="
  M 157.31 69.75
  L 155.89 73.29
  Q 155.61 73.98 156.36 73.98
  L 158.71 73.97
  Q 159.41 73.97 159.18 73.30
  L 157.94 69.77
  Q 157.65 68.92 157.31 69.75"
/>
<path stroke="#a9a9a9" vector-effect="non-scaling-stroke" d="
  M 170.30 68.60
  L 170.28 77.40
  A 0.32 0.32 0.0 0 0 170.60 77.72
  L 172.76 77.73
  A 4.28 4.18 -89.9 0 0 176.95 73.46
  L 176.95 72.58
  A 4.28 4.18 -89.9 0 0 172.78 68.29
  L 170.62 68.28
  A 0.32 0.32 0.0 0 0 170.30 68.60"
/>
<path stroke="#a9a9a9" vector-effect="non-scaling-stroke" d="
  M 191.50 68.65
  L 191.52 72.65
  A 0.33 0.33 0.0 0 0 191.85 72.98
  L 193.73 72.97
  A 2.51 2.08 -0.3 0 0 196.23 70.88
  L 196.23 70.38
  A 2.51 2.08 -0.3 0 0 193.71 68.31
  L 191.83 68.32
  A 0.33 0.33 0.0 0 0 191.50 68.65"
/>
<path stroke="#a9a9a9" vector-effect="non-scaling-stroke" d="
  M 268.79 68.75
  L 268.75 72.21
  A 0.46 0.46 0.0 0 0 269.20 72.68
  L 271.35 72.70
  A 2.11 1.83 0.7 0 0 273.49 70.90
  L 273.49 70.18
  A 2.11 1.83 0.7 0 0 271.41 68.32
  L 269.26 68.30
  A 0.46 0.46 0.0 0 0 268.79 68.75"
/>
</g>
<path fill="#ffffff" d="
  M 0.00 0.00
  L 309.00 0.00
  L 309.00 60.02
  L 81.49 60.01
  Q 81.08 60.01 80.73 60.22
  Q 80.52 60.34 80.34 60.34
  Q 79.79 60.33 79.84 59.79
  Q 80.12 56.69 79.20 54.01
  Q 78.17 51.03 78.11 50.84
  C 68.82 17.45 24.93 10.29 6.52 39.71
  Q -1.88 53.13 0.78 66.94
  Q 4.08 84.06 18.51 93.74
  Q 24.57 97.80 32.60 99.36
  C 35.65 99.95 38.74 99.70 41.74 99.78
  Q 45.03 99.86 48.29 99.13
  C 63.69 95.67 75.14 83.78 78.60 68.41
  Q 78.65 68.22 78.76 68.05
  Q 78.88 67.86 79.05 67.72
  Q 79.41 67.44 79.46 66.99
  L 79.96 62.00
  Q 79.99 61.70 80.30 61.72
  Q 80.54 61.74 80.74 61.88
  A 0.87 0.83 61.1 0 0 81.22 62.03
  L 309.00 62.03
  L 309.00 106.00
  L 0.00 106.00
  L 0.00 0.00
  Z
  M 127.21 47.74
  A 0.38 0.38 0.0 0 1 127.57 47.49
  L 135.98 47.48
  A 0.38 0.38 0.0 0 1 136.34 47.73
  L 138.48 53.73
  A 0.38 0.38 0.0 0 0 138.84 53.98
  L 142.11 54.01
  A 0.38 0.38 0.0 0 0 142.47 53.49
  L 133.99 30.78
  A 0.38 0.38 0.0 0 0 133.64 30.53
  L 130.02 30.51
  A 0.38 0.38 0.0 0 0 129.66 30.76
  L 121.19 53.48
  A 0.38 0.38 0.0 0 0 121.55 53.99
  L 124.76 54.00
  A 0.38 0.38 0.0 0 0 125.12 53.74
  L 127.21 47.74
  Z
  M 144.97 30.82
  L 145.01 53.72
  A 0.27 0.27 0.0 0 0 145.28 53.99
  L 153.12 53.97
  A 10.91 10.35 -0.1 0 0 164.01 43.60
  L 164.01 40.86
  A 10.91 10.35 -0.1 0 0 153.08 30.53
  L 145.24 30.55
  A 0.27 0.27 0.0 0 0 144.97 30.82
  Z
  M 173.77 44.71
  L 176.03 44.75
  Q 176.76 44.76 177.13 45.39
  L 181.72 53.08
  Q 182.27 54.00 183.34 54.00
  L 185.77 54.00
  Q 186.66 54.00 186.18 53.25
  L 180.40 44.29
  Q 180.01 43.69 180.65 43.37
  Q 183.96 41.76 184.39 38.73
  Q 185.42 31.57 177.89 30.77
  Q 173.82 30.34 169.65 30.53
  Q 169.01 30.56 169.01 31.20
  L 169.01 53.51
  Q 169.01 54.00 169.51 54.00
  L 172.50 54.00
  Q 173.00 53.99 173.00 53.50
  L 172.99 45.48
  Q 172.99 44.70 173.77 44.71
  Z
  M 194.00 31.09
  A 0.57 0.57 0.0 0 0 193.43 30.52
  L 190.59 30.52
  A 0.57 0.57 0.0 0 0 190.02 31.09
  L 190.02 53.43
  A 0.57 0.57 0.0 0 0 190.59 54.00
  L 193.43 54.00
  A 0.57 0.57 0.0 0 0 194.00 53.43
  L 194.00 31.09
  Z
  M 203.19 47.75
  A 0.38 0.38 0.0 0 1 203.55 47.49
  L 211.99 47.48
  A 0.38 0.38 0.0 0 1 212.35 47.73
  L 214.47 53.74
  A 0.38 0.38 0.0 0 0 214.83 53.99
  L 218.11 54.00
  A 0.38 0.38 0.0 0 0 218.47 53.49
  L 209.99 30.78
  A 0.38 0.38 0.0 0 0 209.64 30.53
  L 206.00 30.52
  A 0.38 0.38 0.0 0 0 205.65 30.77
  L 197.20 53.48
  A 0.38 0.38 0.0 0 0 197.56 53.99
  L 200.77 54.00
  A 0.38 0.38 0.0 0 0 201.13 53.74
  L 203.19 47.75
  Z
  M 225.75 35.95
  L 236.56 53.47
  Q 236.88 54.00 237.51 54.00
  L 240.74 54.00
  Q 241.48 54.00 241.48 53.26
  L 241.48 30.74
  A 0.24 0.24 0.0 0 0 241.24 30.50
  L 238.28 30.54
  Q 238.08 30.54 238.07 30.74
  Q 237.77 39.53 238.29 48.05
  Q 238.37 49.46 237.63 48.25
  L 226.87 30.85
  Q 226.66 30.51 226.25 30.51
  L 222.74 30.52
  Q 222.00 30.53 222.00 31.26
  L 222.00 53.76
  A 0.26 0.25 0.0 0 0 222.26 54.01
  L 225.26 53.98
  Q 225.50 53.98 225.50 53.74
  L 225.44 36.04
  Q 225.44 35.44 225.75 35.95
  Z
  M 251.21 47.74
  A 0.38 0.38 0.0 0 1 251.57 47.49
  L 259.98 47.47
  A 0.38 0.38 0.0 0 1 260.34 47.72
  L 262.48 53.74
  A 0.38 0.38 0.0 0 0 262.84 53.99
  L 266.11 54.00
  A 0.38 0.38 0.0 0 0 266.47 53.49
  L 257.99 30.77
  A 0.38 0.38 0.0 0 0 257.64 30.52
  L 254.01 30.51
  A 0.38 0.38 0.0 0 0 253.66 30.76
  L 245.19 53.49
  A 0.38 0.38 0.0 0 0 245.55 54.00
  L 248.76 53.99
  A 0.38 0.38 0.0 0 0 249.12 53.74
  L 251.21 47.74
  Z
  M 149.46 77.45
  Q 147.03 78.43 144.57 77.33
  A 0.37 0.37 0.0 0 0 144.05 77.61
  L 143.99 78.00
  Q 143.90 78.56 144.43 78.77
  C 146.36 79.54 150.75 79.61 151.53 76.97
  C 153.14 71.52 145.35 73.38 145.74 69.68
  Q 145.86 68.58 146.94 68.36
  Q 148.78 67.98 150.34 68.62
  A 0.45 0.44 -67.7 0 0 150.92 68.37
  L 151.12 67.88
  Q 151.30 67.45 150.86 67.28
  Q 148.48 66.40 146.13 67.20
  C 143.68 68.03 143.53 71.15 145.49 72.54
  C 147.21 73.76 150.75 73.70 150.15 76.63
  A 1.16 1.15 -5.0 0 1 149.46 77.45
  Z
  M 257.62 74.12
  Q 259.40 75.58 258.90 76.52
  Q 258.07 78.04 256.17 77.93
  Q 254.76 77.84 253.29 77.48
  Q 252.34 77.24 252.69 78.16
  Q 252.80 78.45 253.07 78.60
  Q 255.81 80.00 258.48 78.73
  C 260.92 77.56 261.39 74.01 258.64 73.01
  Q 256.91 72.39 255.26 71.44
  A 1.67 1.66 54.4 0 1 255.77 68.36
  Q 257.48 68.04 259.33 68.57
  A 0.45 0.45 0.0 0 0 259.89 68.08
  L 259.85 67.73
  Q 259.77 67.11 259.15 67.03
  Q 257.51 66.82 256.12 66.85
  C 254.31 66.88 252.56 68.55 252.99 70.47
  Q 253.55 72.93 256.85 73.74
  A 1.89 1.88 -18.6 0 1 257.62 74.12
  Z
  M 96.8797 67.4613
  A 0.43 0.43 0.0 0 0 96.4504 67.0305
  L 95.8704 67.0295
  A 0.43 0.43 0.0 0 0 95.4397 67.4588
  L 95.4203 78.5187
  A 0.43 0.43 0.0 0 0 95.8496 78.9495
  L 96.4296 78.9505
  A 0.43 0.43 0.0 0 0 96.8603 78.5212
  L 96.8797 67.4613
  Z
  M 101.77 70.22
  L 104.54 77.47
  Q 105.78 80.73 106.99 77.46
  Q 108.58 73.19 109.95 69.75
  Q 110.06 69.47 110.28 69.26
  Q 110.33 69.21 110.33 69.29
  L 110.08 78.28
  A 0.71 0.70 1.2 0 0 110.78 79.00
  L 111.16 79.00
  Q 111.83 79.00 111.83 78.34
  L 111.83 67.94
  Q 111.83 67.02 110.93 66.90
  Q 109.68 66.74 109.25 67.87
  Q 107.70 72.01 106.11 76.02
  Q 105.80 76.79 105.50 76.02
  L 102.23 67.53
  A 0.91 0.91 0.0 0 0 101.58 66.96
  Q 101.05 66.83 100.51 66.94
  Q 99.92 67.07 99.93 67.67
  L 99.95 78.76
  Q 99.95 79.07 100.26 79.06
  L 100.89 79.03
  Q 101.29 79.02 101.30 78.61
  L 101.38 70.29
  Q 101.39 69.22 101.77 70.22
  Z
  M 117.18 74.24
  C 120.28 74.81 123.22 73.31 122.74 69.90
  Q 122.41 67.60 120.11 67.25
  Q 119.45 67.15 117.27 66.83
  Q 115.16 66.52 115.16 68.65
  L 115.15 78.51
  Q 115.14 79.04 115.67 79.01
  L 115.95 78.99
  A 0.68 0.68 0.0 0 0 116.59 78.30
  L 116.52 74.80
  A 0.56 0.56 0.0 0 1 117.18 74.24
  Z
  M 130.84 73.51
  L 131.48 73.08
  Q 131.92 72.80 132.20 72.36
  Q 133.26 70.66 132.47 68.82
  C 131.50 66.56 127.83 66.84 125.81 67.00
  Q 125.15 67.05 125.15 67.71
  L 125.16 78.42
  Q 125.16 78.98 125.72 78.98
  L 126.10 78.98
  Q 126.60 78.98 126.59 78.47
  L 126.52 74.70
  A 0.69 0.68 1.2 0 1 127.26 74.00
  Q 127.73 74.03 128.18 74.01
  Q 129.12 73.98 129.60 74.98
  Q 130.54 76.89 131.63 78.66
  Q 131.92 79.14 132.48 79.07
  L 133.10 79.00
  Q 133.65 78.93 133.36 78.47
  L 130.69 74.20
  Q 130.42 73.78 130.84 73.51
  Z
  M 136.86 68.58
  A 0.27 0.27 0.0 0 1 137.13 68.31
  L 141.71 68.35
  A 0.27 0.27 0.0 0 0 141.98 68.10
  L 142.04 67.24
  A 0.27 0.27 0.0 0 0 141.77 66.95
  L 135.72 66.96
  A 0.27 0.27 0.0 0 0 135.45 67.23
  L 135.47 78.78
  A 0.27 0.27 0.0 0 0 135.74 79.05
  L 141.79 79.04
  A 0.27 0.27 0.0 0 0 142.06 78.75
  L 142.01 77.93
  A 0.27 0.27 0.0 0 0 141.74 77.68
  L 137.07 77.68
  A 0.27 0.27 0.0 0 1 136.80 77.41
  L 136.87 73.62
  A 0.27 0.27 0.0 0 1 137.13 73.36
  L 141.57 73.34
  A 0.27 0.27 0.0 0 0 141.83 73.05
  L 141.78 72.46
  A 0.27 0.27 0.0 0 0 141.52 72.21
  L 137.11 72.11
  A 0.27 0.27 0.0 0 1 136.85 71.84
  L 136.86 68.58
  Z
  M 155.72 75.30
  L 159.32 75.30
  Q 159.95 75.30 160.17 75.90
  L 161.09 78.46
  Q 161.33 79.13 162.04 79.00
  L 162.47 78.92
  Q 162.87 78.85 162.72 78.47
  L 158.67 68.23
  Q 157.55 65.37 156.42 68.23
  L 152.44 78.34
  Q 152.20 78.95 152.85 78.96
  L 153.18 78.97
  Q 153.79 78.98 153.99 78.41
  L 154.88 75.89
  Q 155.09 75.29 155.72 75.30
  Z
  M 168.96 67.33
  L 168.94 78.63
  A 0.40 0.40 0.0 0 0 169.34 79.03
  L 172.86 79.04
  A 5.67 5.66 -89.9 0 0 178.53 73.38
  L 178.53 72.62
  A 5.67 5.66 -89.9 0 0 172.88 66.94
  L 169.36 66.93
  A 0.40 0.40 0.0 0 0 168.96 67.33
  Z
  M 182.57 67.45
  A 0.41 0.41 0.0 0 0 182.16 67.04
  L 181.54 67.04
  A 0.41 0.41 0.0 0 0 181.13 67.45
  L 181.13 78.55
  A 0.41 0.41 0.0 0 0 181.54 78.96
  L 182.16 78.96
  A 0.41 0.41 0.0 0 0 182.57 78.55
  L 182.57 67.45
  Z
  M 192.24 74.28
  C 195.28 74.67 198.16 73.40 197.73 69.97
  Q 197.44 67.64 195.12 67.22
  Q 193.49 66.92 191.76 66.82
  Q 190.17 66.73 190.17 68.32
  L 190.14 78.33
  A 0.66 0.66 0.0 0 0 190.84 78.99
  L 191.20 78.98
  Q 191.61 78.95 191.60 78.55
  L 191.51 74.93
  A 0.65 0.65 0.0 0 1 192.24 74.28
  Z
  M 204.29 77.93
  Q 201.51 77.82 201.51 75.04
  L 201.52 67.26
  Q 201.52 67.01 201.26 67.00
  L 200.26 66.95
  Q 199.95 66.94 199.95 67.25
  L 199.93 74.30
  Q 199.92 78.65 204.24 79.24
  Q 204.58 79.29 204.91 79.25
  Q 209.29 78.75 209.31 74.34
  L 209.34 67.51
  A 0.56 0.56 0.0 0 0 208.77 66.95
  L 208.23 66.95
  Q 207.68 66.96 207.68 67.52
  L 207.68 75.07
  Q 207.68 78.07 204.68 77.95
  L 204.29 77.93
  Z
  M 214.08 77.69
  A 0.29 0.29 0.0 0 1 213.79 77.40
  L 213.81 67.33
  A 0.29 0.29 0.0 0 0 213.51 67.04
  L 212.74 67.05
  A 0.29 0.29 0.0 0 0 212.46 67.34
  L 212.47 78.76
  A 0.29 0.29 0.0 0 0 212.76 79.05
  L 218.77 79.05
  A 0.29 0.29 0.0 0 0 219.06 78.73
  L 218.99 77.94
  A 0.29 0.29 0.0 0 0 218.70 77.67
  L 214.08 77.69
  Z
  M 222.57 67.48
  A 0.44 0.44 0.0 0 0 222.13 67.04
  L 221.57 67.04
  A 0.44 0.44 0.0 0 0 221.13 67.48
  L 221.13 78.54
  A 0.44 0.44 0.0 0 0 221.57 78.98
  L 222.13 78.98
  A 0.44 0.44 0.0 0 0 222.57 78.54
  L 222.57 67.48
  Z
  M 227.10 77.03
  L 233.07 68.04
  A 0.70 0.70 0.0 0 0 232.49 66.95
  L 225.39 66.94
  Q 224.97 66.94 224.97 67.36
  L 224.98 67.91
  Q 224.99 68.33 225.41 68.33
  L 230.72 68.30
  A 0.28 0.28 0.0 0 1 230.95 68.74
  L 224.99 77.70
  A 0.88 0.88 0.0 0 0 225.73 79.07
  L 232.91 79.03
  Q 233.34 79.03 233.35 78.60
  L 233.36 78.28
  A 0.56 0.56 0.0 0 0 232.79 77.69
  L 227.46 77.70
  Q 226.65 77.70 227.10 77.03
  Z
  M 236.8403 67.4688
  A 0.44 0.44 0.0 0 0 236.3996 67.0296
  L 235.8796 67.0305
  A 0.44 0.44 0.0 0 0 235.4403 67.4712
  L 235.4597 78.5512
  A 0.44 0.44 0.0 0 0 235.9004 78.9904
  L 236.4204 78.9895
  A 0.44 0.44 0.0 0 0 236.8597 78.5488
  L 236.8403 67.4688
  Z
  M 241.57 77.69
  A 0.27 0.27 0.0 0 1 241.30 77.42
  L 241.34 73.61
  A 0.27 0.27 0.0 0 1 241.61 73.34
  L 246.10 73.34
  A 0.27 0.27 0.0 0 0 246.37 73.04
  L 246.30 72.44
  A 0.27 0.27 0.0 0 0 246.03 72.21
  L 241.61 72.14
  A 0.27 0.27 0.0 0 1 241.35 71.88
  L 241.29 68.59
  A 0.27 0.27 0.0 0 1 241.56 68.32
  L 246.28 68.31
  A 0.27 0.27 0.0 0 0 246.54 68.00
  L 246.42 67.20
  A 0.27 0.27 0.0 0 0 246.16 66.97
  L 240.21 66.95
  A 0.27 0.27 0.0 0 0 239.94 67.22
  L 239.95 78.81
  A 0.27 0.27 0.0 0 0 240.22 79.08
  L 246.18 79.00
  A 0.27 0.27 0.0 0 0 246.44 78.80
  L 246.63 78.04
  A 0.27 0.27 0.0 0 0 246.37 77.71
  L 241.57 77.69
  Z
  M 269.26 74.01
  C 270.33 73.92 271.47 73.99 271.98 75.11
  Q 272.86 77.04 274.01 78.74
  A 0.85 0.85 0.0 0 0 274.95 79.09
  L 275.35 78.98
  Q 275.84 78.84 275.57 78.41
  L 272.88 74.14
  Q 272.58 73.67 273.10 73.46
  Q 274.87 72.76 274.97 70.74
  C 275.18 66.46 270.95 66.83 268.04 66.95
  Q 267.47 66.97 267.47 67.54
  L 267.47 78.49
  Q 267.47 79.01 267.99 78.99
  L 268.45 78.98
  Q 268.85 78.97 268.85 78.56
  L 268.79 74.52
  Q 268.78 74.04 269.26 74.01
  Z
  M 283.80 77.66
  A 0.29 0.29 0.0 0 1 283.51 77.37
  L 283.59 67.33
  A 0.29 0.29 0.0 0 0 283.28 67.03
  L 282.36 67.08
  A 0.29 0.29 0.0 0 0 282.08 67.37
  L 282.24 78.79
  A 0.29 0.29 0.0 0 0 282.53 79.07
  L 288.68 78.97
  A 0.29 0.29 0.0 0 0 288.95 78.61
  L 288.78 77.93
  A 0.29 0.29 0.0 0 0 288.51 77.71
  L 283.80 77.66
  Z
  M 264.64 78.10
  A 1.13 1.13 0.0 0 0 263.51 76.97
  A 1.13 1.13 0.0 0 0 262.38 78.10
  A 1.13 1.13 0.0 0 0 263.51 79.23
  A 1.13 1.13 0.0 0 0 264.64 78.10
  Z
  M 279.40 78.15
  A 1.13 1.13 0.0 0 0 278.27 77.02
  A 1.13 1.13 0.0 0 0 277.14 78.15
  A 1.13 1.13 0.0 0 0 278.27 79.28
  A 1.13 1.13 0.0 0 0 279.40 78.15
  Z
  M 291.4388 79.3085
  A 1.21 1.05 92.9 0 0 292.5487 78.1531
  A 1.21 1.05 92.9 0 0 291.5612 76.8915
  A 1.21 1.05 92.9 0 0 290.4513 78.0469
  A 1.21 1.05 92.9 0 0 291.4388 79.3085
  Z"
/>
<path fill="#2b50a7" d="
  M 309.00 60.02
  L 309.00 62.03
  L 81.22 62.03
  A 0.87 0.83 61.1 0 1 80.74 61.88
  Q 80.54 61.74 80.30 61.72
  Q 79.99 61.70 79.96 62.00
  L 79.46 66.99
  Q 79.41 67.44 79.05 67.72
  Q 78.88 67.86 78.76 68.05
  Q 78.65 68.22 78.60 68.41
  C 75.14 83.78 63.69 95.67 48.29 99.13
  Q 45.03 99.86 41.74 99.78
  C 38.74 99.70 35.65 99.95 32.60 99.36
  Q 24.57 97.80 18.51 93.74
  Q 4.08 84.06 0.78 66.94
  Q -1.88 53.13 6.52 39.71
  C 24.93 10.29 68.82 17.45 78.11 50.84
  Q 78.17 51.03 79.20 54.01
  Q 80.12 56.69 79.84 59.79
  Q 79.79 60.33 80.34 60.34
  Q 80.52 60.34 80.73 60.22
  Q 81.08 60.01 81.49 60.01
  L 309.00 60.02
  Z
  M 78.11 60.60
  A 38.27 38.27 0.0 0 0 39.84 22.33
  A 38.27 38.27 0.0 0 0 1.57 60.60
  A 38.27 38.27 0.0 0 0 39.84 98.87
  A 38.27 38.27 0.0 0 0 78.11 60.60
  Z"
/>
<path fill="#ffffff" d="
  M 78.11 60.60
  A 38.27 38.27 0.0 0 1 39.84 98.87
  A 38.27 38.27 0.0 0 1 1.57 60.60
  A 38.27 38.27 0.0 0 1 39.84 22.33
  A 38.27 38.27 0.0 0 1 78.11 60.60
  Z
  M 12.60 45.23
  Q 5.81 55.54 8.81 67.76
  Q 11.78 79.80 21.90 86.92
  L 24.25 88.41
  L 28.12 90.26
  Q 42.76 95.69 56.09 88.05
  Q 68.27 80.59 71.07 67.25
  Q 74.43 51.32 63.28 39.37
  Q 61.87 38.19 60.41 36.81
  Q 58.73 35.23 57.44 34.38
  Q 41.03 23.59 24.19 33.24
  Q 22.00 34.49 19.69 35.03
  Q 11.44 36.94 6.74 44.77
  Q 6.32 45.47 6.84 46.12
  Q 7.17 46.52 7.65 46.32
  Q 8.62 45.90 9.58 45.35
  Q 10.13 45.05 12.60 45.23
  Z"
/>
<path fill="#2b50a7" d="
  M 63.28 39.37
  Q 65.46 45.40 63.69 49.45
  C 62.76 51.58 60.77 54.00 60.57 56.36
  Q 60.46 57.74 60.53 59.14
  Q 60.61 60.69 59.15 60.64
  A 1.96 1.96 0.0 0 1 57.44 59.54
  Q 52.59 49.57 40.79 48.07
  Q 27.92 46.43 20.11 58.69
  C 16.55 64.29 18.69 75.61 23.61 80.10
  A 0.90 0.88 -31.2 0 0 24.48 80.30
  Q 26.57 79.70 28.59 78.18
  A 0.62 0.62 0.0 0 1 29.58 78.61
  C 29.91 81.74 24.76 80.36 25.50 84.67
  C 25.75 86.09 25.23 87.40 24.25 88.41
  L 21.90 86.92
  Q 23.44 84.33 21.98 82.77
  Q 18.27 78.79 16.69 76.57
  Q 7.10 63.06 12.60 45.23
  Q 10.13 45.05 9.58 45.35
  Q 8.62 45.90 7.65 46.32
  Q 7.17 46.52 6.84 46.12
  Q 6.32 45.47 6.74 44.77
  Q 11.44 36.94 19.69 35.03
  Q 22.00 34.49 24.19 33.24
  Q 41.03 23.59 57.44 34.38
  Q 58.73 35.23 60.41 36.81
  Q 61.87 38.19 63.28 39.37
  Z
  M 60.2571 50.0299
  A 1.09 0.96 89.1 0 0 61.1999 48.9249
  A 1.09 0.96 89.1 0 0 60.2229 47.8501
  A 1.09 0.96 89.1 0 0 59.2801 48.9551
  A 1.09 0.96 89.1 0 0 60.2571 50.0299
  Z"
/>
<path fill="#2b50a7" d="
  M 127.21 47.74
  L 125.12 53.74
  A 0.38 0.38 0.0 0 1 124.76 54.00
  L 121.55 53.99
  A 0.38 0.38 0.0 0 1 121.19 53.48
  L 129.66 30.76
  A 0.38 0.38 0.0 0 1 130.02 30.51
  L 133.64 30.53
  A 0.38 0.38 0.0 0 1 133.99 30.78
  L 142.47 53.49
  A 0.38 0.38 0.0 0 1 142.11 54.01
  L 138.84 53.98
  A 0.38 0.38 0.0 0 1 138.48 53.73
  L 136.34 47.73
  A 0.38 0.38 0.0 0 0 135.98 47.48
  L 127.57 47.49
  A 0.38 0.38 0.0 0 0 127.21 47.74
  Z
  M 128.47 43.93
  A 0.24 0.23 10.9 0 0 128.69 44.25
  L 134.57 44.26
  Q 135.21 44.26 135.01 43.65
  L 132.04 34.74
  Q 131.76 33.90 131.53 34.75
  Q 130.37 39.10 128.47 43.93
  Z"
/>
<path fill="#2b50a7" d="
  M 144.97 30.82
  A 0.27 0.27 0.0 0 1 145.24 30.55
  L 153.08 30.53
  A 10.91 10.35 -0.1 0 1 164.01 40.86
  L 164.01 43.60
  A 10.91 10.35 -0.1 0 1 153.12 53.97
  L 145.28 53.99
  A 0.27 0.27 0.0 0 1 145.01 53.72
  L 144.97 30.82
  Z
  M 148.96 34.11
  L 148.98 50.37
  A 0.38 0.38 0.0 0 0 149.36 50.75
  L 152.68 50.74
  A 7.34 7.12 -0.1 0 0 160.01 43.61
  L 160.01 40.83
  A 7.34 7.12 -0.1 0 0 152.66 33.72
  L 149.34 33.73
  A 0.38 0.38 0.0 0 0 148.96 34.11
  Z"
/>
<path fill="#2b50a7" d="
  M 172.99 45.48
  L 173.00 53.50
  Q 173.00 53.99 172.50 54.00
  L 169.51 54.00
  Q 169.01 54.00 169.01 53.51
  L 169.01 31.20
  Q 169.01 30.56 169.65 30.53
  Q 173.82 30.34 177.89 30.77
  Q 185.42 31.57 184.39 38.73
  Q 183.96 41.76 180.65 43.37
  Q 180.01 43.69 180.40 44.29
  L 186.18 53.25
  Q 186.66 54.00 185.77 54.00
  L 183.34 54.00
  Q 182.27 54.00 181.72 53.08
  L 177.13 45.39
  Q 176.76 44.76 176.03 44.75
  L 173.77 44.71
  Q 172.99 44.70 172.99 45.48
  Z
  M 172.94 34.42
  L 173.00 40.94
  A 0.64 0.64 0.0 0 0 173.64 41.58
  L 176.02 41.56
  A 4.72 3.63 -0.5 0 0 180.71 37.89
  L 180.71 37.35
  A 4.72 3.63 -0.5 0 0 175.96 33.76
  L 173.58 33.78
  A 0.64 0.64 0.0 0 0 172.94 34.42
  Z"
/>
<rect fill="#2b50a7" x="190.02" y="30.52" width="3.98" height="23.48" rx="0.57"/>
<path fill="#2b50a7" d="
  M 203.19 47.75
  L 201.13 53.74
  A 0.38 0.38 0.0 0 1 200.77 54.00
  L 197.56 53.99
  A 0.38 0.38 0.0 0 1 197.20 53.48
  L 205.65 30.77
  A 0.38 0.38 0.0 0 1 206.00 30.52
  L 209.64 30.53
  A 0.38 0.38 0.0 0 1 209.99 30.78
  L 218.47 53.49
  A 0.38 0.38 0.0 0 1 218.11 54.00
  L 214.83 53.99
  A 0.38 0.38 0.0 0 1 214.47 53.74
  L 212.35 47.73
  A 0.38 0.38 0.0 0 0 211.99 47.48
  L 203.55 47.49
  A 0.38 0.38 0.0 0 0 203.19 47.75
  Z
  M 204.52 43.98
  A 0.20 0.20 0.0 0 0 204.71 44.25
  L 210.57 44.26
  Q 211.21 44.26 211.01 43.65
  L 208.06 34.77
  Q 207.87 34.20 207.67 34.77
  L 204.52 43.98
  Z"
/>
<path fill="#2b50a7" d="
  M 225.44 36.04
  L 225.50 53.74
  Q 225.50 53.98 225.26 53.98
  L 222.26 54.01
  A 0.26 0.25 -0.0 0 1 222.00 53.76
  L 222.00 31.26
  Q 222.00 30.53 222.74 30.52
  L 226.25 30.51
  Q 226.66 30.51 226.87 30.85
  L 237.63 48.25
  Q 238.37 49.46 238.29 48.05
  Q 237.77 39.53 238.07 30.74
  Q 238.08 30.54 238.28 30.54
  L 241.24 30.50
  A 0.24 0.24 0.0 0 1 241.48 30.74
  L 241.48 53.26
  Q 241.48 54.00 240.74 54.00
  L 237.51 54.00
  Q 236.88 54.00 236.56 53.47
  L 225.75 35.95
  Q 225.44 35.44 225.44 36.04
  Z"
/>
<path fill="#2b50a7" d="
  M 251.21 47.74
  L 249.12 53.74
  A 0.38 0.38 0.0 0 1 248.76 53.99
  L 245.55 54.00
  A 0.38 0.38 0.0 0 1 245.19 53.49
  L 253.66 30.76
  A 0.38 0.38 0.0 0 1 254.01 30.51
  L 257.64 30.52
  A 0.38 0.38 0.0 0 1 257.99 30.77
  L 266.47 53.49
  A 0.38 0.38 0.0 0 1 266.11 54.00
  L 262.84 53.99
  A 0.38 0.38 0.0 0 1 262.48 53.74
  L 260.34 47.72
  A 0.38 0.38 0.0 0 0 259.98 47.47
  L 251.57 47.49
  A 0.38 0.38 0.0 0 0 251.21 47.74
  Z
  M 256.16 34.84
  A 0.34 0.34 0.0 0 0 255.52 34.84
  L 252.63 43.83
  A 0.34 0.34 0.0 0 0 252.96 44.27
  L 258.72 44.28
  A 0.34 0.34 0.0 0 0 259.05 43.84
  L 256.16 34.84
  Z"
/>
<path fill="#ffffff" d="
  M 148.96 34.11
  A 0.38 0.38 0.0 0 1 149.34 33.73
  L 152.66 33.72
  A 7.34 7.12 -0.1 0 1 160.01 40.83
  L 160.01 43.61
  A 7.34 7.12 -0.1 0 1 152.68 50.74
  L 149.36 50.75
  A 0.38 0.38 0.0 0 1 148.98 50.37
  L 148.96 34.11
  Z"
/>
<path fill="#ffffff" d="
  M 172.94 34.42
  A 0.64 0.64 0.0 0 1 173.58 33.78
  L 175.96 33.76
  A 4.72 3.63 -0.5 0 1 180.71 37.35
  L 180.71 37.89
  A 4.72 3.63 -0.5 0 1 176.02 41.56
  L 173.64 41.58
  A 0.64 0.64 0.0 0 1 173.00 40.94
  L 172.94 34.42
  Z"
/>
<path fill="#ffffff" d="
  M 128.47 43.93
  Q 130.37 39.10 131.53 34.75
  Q 131.76 33.90 132.04 34.74
  L 135.01 43.65
  Q 135.21 44.26 134.57 44.26
  L 128.69 44.25
  A 0.24 0.23 10.9 0 1 128.47 43.93
  Z"
/>
<path fill="#ffffff" d="
  M 256.16 34.84
  L 259.05 43.84
  A 0.34 0.34 0.0 0 1 258.72 44.28
  L 252.96 44.27
  A 0.34 0.34 0.0 0 1 252.63 43.83
  L 255.52 34.84
  A 0.34 0.34 0.0 0 1 256.16 34.84
  Z"
/>
<path fill="#ffffff" d="
  M 204.52 43.98
  L 207.67 34.77
  Q 207.87 34.20 208.06 34.77
  L 211.01 43.65
  Q 211.21 44.26 210.57 44.26
  L 204.71 44.25
  A 0.20 0.20 0.0 0 1 204.52 43.98
  Z"
/>
<path fill="#f0fa00" d="
  M 63.28 39.37
  Q 74.43 51.32 71.07 67.25
  Q 68.27 80.59 56.09 88.05
  C 55.34 86.32 53.50 86.34 52.35 87.52
  C 50.56 89.35 47.24 91.87 44.83 89.83
  A 2.01 2.00 -52.5 0 1 44.48 87.14
  Q 46.78 83.90 49.55 86.47
  Q 50.29 87.16 50.76 86.26
  Q 51.40 85.01 50.02 83.67
  A 9.84 7.72 76.9 0 0 48.69 82.60
  C 43.12 78.99 38.45 82.56 34.17 86.94
  Q 32.95 88.19 28.12 90.26
  L 24.25 88.41
  C 25.23 87.40 25.75 86.09 25.50 84.67
  C 24.76 80.36 29.91 81.74 29.58 78.61
  A 0.62 0.62 0.0 0 0 28.59 78.18
  Q 26.57 79.70 24.48 80.30
  A 0.90 0.88 -31.2 0 1 23.61 80.10
  C 18.69 75.61 16.55 64.29 20.11 58.69
  Q 27.92 46.43 40.79 48.07
  Q 52.59 49.57 57.44 59.54
  A 1.96 1.96 0.0 0 0 59.15 60.64
  Q 60.61 60.69 60.53 59.14
  Q 60.46 57.74 60.57 56.36
  C 60.77 54.00 62.76 51.58 63.69 49.45
  Q 65.46 45.40 63.28 39.37
  Z"
/>
<path fill="#f0fa00" d="
  M 12.60 45.23
  Q 7.10 63.06 16.69 76.57
  Q 18.27 78.79 21.98 82.77
  Q 23.44 84.33 21.90 86.92
  Q 11.78 79.80 8.81 67.76
  Q 5.81 55.54 12.60 45.23
  Z"
/>
<ellipse fill="#f0fa00" cx="0.00" cy="0.00" transform="translate(60.24,48.94) rotate(89.1)" rx="1.09" ry="0.96"/>
<path fill="#535353" d="
  M 150.15 76.63
  C 150.75 73.70 147.21 73.76 145.49 72.54
  C 143.53 71.15 143.68 68.03 146.13 67.20
  Q 148.48 66.40 150.86 67.28
  Q 151.30 67.45 151.12 67.88
  L 150.92 68.37
  A 0.45 0.44 -67.7 0 1 150.34 68.62
  Q 148.78 67.98 146.94 68.36
  Q 145.86 68.58 145.74 69.68
  C 145.35 73.38 153.14 71.52 151.53 76.97
  C 150.75 79.61 146.36 79.54 144.43 78.77
  Q 143.90 78.56 143.99 78.00
  L 144.05 77.61
  A 0.37 0.37 0.0 0 1 144.57 77.33
  Q 147.03 78.43 149.46 77.45
  A 1.16 1.15 -5.0 0 0 150.15 76.63
  Z"
/>
<path fill="#535353" d="
  M 257.62 74.12
  A 1.89 1.88 -18.6 0 0 256.85 73.74
  Q 253.55 72.93 252.99 70.47
  C 252.56 68.55 254.31 66.88 256.12 66.85
  Q 257.51 66.82 259.15 67.03
  Q 259.77 67.11 259.85 67.73
  L 259.89 68.08
  A 0.45 0.45 0.0 0 1 259.33 68.57
  Q 257.48 68.04 255.77 68.36
  A 1.67 1.66 54.4 0 0 255.26 71.44
  Q 256.91 72.39 258.64 73.01
  C 261.39 74.01 260.92 77.56 258.48 78.73
  Q 255.81 80.00 253.07 78.60
  Q 252.80 78.45 252.69 78.16
  Q 252.34 77.24 253.29 77.48
  Q 254.76 77.84 256.17 77.93
  Q 258.07 78.04 258.90 76.52
  Q 259.40 75.58 257.62 74.12
  Z"
/>
<rect fill="#535353" x="-0.72" y="-5.96" transform="translate(96.15,72.99) rotate(0.1)" width="1.44" height="11.92" rx="0.43"/>
<path fill="#535353" d="
  M 101.38 70.29
  L 101.30 78.61
  Q 101.29 79.02 100.89 79.03
  L 100.26 79.06
  Q 99.95 79.07 99.95 78.76
  L 99.93 67.67
  Q 99.92 67.07 100.51 66.94
  Q 101.05 66.83 101.58 66.96
  A 0.91 0.91 0.0 0 1 102.23 67.53
  L 105.50 76.02
  Q 105.80 76.79 106.11 76.02
  Q 107.70 72.01 109.25 67.87
  Q 109.68 66.74 110.93 66.90
  Q 111.83 67.02 111.83 67.94
  L 111.83 78.34
  Q 111.83 79.00 111.16 79.00
  L 110.78 79.00
  A 0.71 0.70 1.2 0 1 110.08 78.28
  L 110.33 69.29
  Q 110.33 69.21 110.28 69.26
  Q 110.06 69.47 109.95 69.75
  Q 108.58 73.19 106.99 77.46
  Q 105.78 80.73 104.54 77.47
  L 101.77 70.22
  Q 101.39 69.22 101.38 70.29
  Z"
/>
<path fill="#535353" d="
  M 116.52 74.80
  L 116.59 78.30
  A 0.68 0.68 0.0 0 1 115.95 78.99
  L 115.67 79.01
  Q 115.14 79.04 115.15 78.51
  L 115.16 68.65
  Q 115.16 66.52 117.27 66.83
  Q 119.45 67.15 120.11 67.25
  Q 122.41 67.60 122.74 69.90
  C 123.22 73.31 120.28 74.81 117.18 74.24
  A 0.56 0.56 0.0 0 0 116.52 74.80
  Z
  M 116.51 68.64
  L 116.51 72.64
  A 0.33 0.33 0.0 0 0 116.84 72.97
  L 118.87 72.97
  A 2.32 2.05 0.0 0 0 121.19 70.92
  L 121.19 70.36
  A 2.32 2.05 0.0 0 0 118.87 68.31
  L 116.84 68.31
  A 0.33 0.33 0.0 0 0 116.51 68.64
  Z"
/>
<path fill="#535353" d="
  M 130.69 74.20
  L 133.36 78.47
  Q 133.65 78.93 133.10 79.00
  L 132.48 79.07
  Q 131.92 79.14 131.63 78.66
  Q 130.54 76.89 129.60 74.98
  Q 129.12 73.98 128.18 74.01
  Q 127.73 74.03 127.26 74.00
  A 0.69 0.68 1.2 0 0 126.52 74.70
  L 126.59 78.47
  Q 126.60 78.98 126.10 78.98
  L 125.72 78.98
  Q 125.16 78.98 125.16 78.42
  L 125.15 67.71
  Q 125.15 67.05 125.81 67.00
  C 127.83 66.84 131.50 66.56 132.47 68.82
  Q 133.26 70.66 132.20 72.36
  Q 131.92 72.80 131.48 73.08
  L 130.84 73.51
  Q 130.42 73.78 130.69 74.20
  Z
  M 126.52 68.76
  L 126.52 72.28
  A 0.41 0.41 0.0 0 0 126.93 72.69
  L 129.12 72.69
  A 2.12 1.81 -0.1 0 0 131.24 70.88
  L 131.24 70.16
  A 2.12 1.81 -0.1 0 0 129.12 68.35
  L 126.93 68.35
  A 0.41 0.41 0.0 0 0 126.52 68.76
  Z"
/>
<path fill="#535353" d="
  M 136.86 68.58
  L 136.85 71.84
  A 0.27 0.27 0.0 0 0 137.11 72.11
  L 141.52 72.21
  A 0.27 0.27 0.0 0 1 141.78 72.46
  L 141.83 73.05
  A 0.27 0.27 0.0 0 1 141.57 73.34
  L 137.13 73.36
  A 0.27 0.27 0.0 0 0 136.87 73.62
  L 136.80 77.41
  A 0.27 0.27 0.0 0 0 137.07 77.68
  L 141.74 77.68
  A 0.27 0.27 0.0 0 1 142.01 77.93
  L 142.06 78.75
  A 0.27 0.27 0.0 0 1 141.79 79.04
  L 135.74 79.05
  A 0.27 0.27 0.0 0 1 135.47 78.78
  L 135.45 67.23
  A 0.27 0.27 0.0 0 1 135.72 66.96
  L 141.77 66.95
  A 0.27 0.27 0.0 0 1 142.04 67.24
  L 141.98 68.10
  A 0.27 0.27 0.0 0 1 141.71 68.35
  L 137.13 68.31
  A 0.27 0.27 0.0 0 0 136.86 68.58
  Z"
/>
<path fill="#535353" d="
  M 154.88 75.89
  L 153.99 78.41
  Q 153.79 78.98 153.18 78.97
  L 152.85 78.96
  Q 152.20 78.95 152.44 78.34
  L 156.42 68.23
  Q 157.55 65.37 158.67 68.23
  L 162.72 78.47
  Q 162.87 78.85 162.47 78.92
  L 162.04 79.00
  Q 161.33 79.13 161.09 78.46
  L 160.17 75.90
  Q 159.95 75.30 159.32 75.30
  L 155.72 75.30
  Q 155.09 75.29 154.88 75.89
  Z
  M 157.31 69.75
  L 155.89 73.29
  Q 155.61 73.98 156.36 73.98
  L 158.71 73.97
  Q 159.41 73.97 159.18 73.30
  L 157.94 69.77
  Q 157.65 68.92 157.31 69.75
  Z"
/>
<path fill="#535353" d="
  M 168.96 67.33
  A 0.40 0.40 0.0 0 1 169.36 66.93
  L 172.88 66.94
  A 5.67 5.66 -89.9 0 1 178.53 72.62
  L 178.53 73.38
  A 5.67 5.66 -89.9 0 1 172.86 79.04
  L 169.34 79.03
  A 0.40 0.40 0.0 0 1 168.94 78.63
  L 168.96 67.33
  Z
  M 170.30 68.60
  L 170.28 77.40
  A 0.32 0.32 0.0 0 0 170.60 77.72
  L 172.76 77.73
  A 4.28 4.18 -89.9 0 0 176.95 73.46
  L 176.95 72.58
  A 4.28 4.18 -89.9 0 0 172.78 68.29
  L 170.62 68.28
  A 0.32 0.32 0.0 0 0 170.30 68.60
  Z"
/>
<rect fill="#535353" x="181.13" y="67.04" width="1.44" height="11.92" rx="0.41"/>
<path fill="#535353" d="
  M 191.51 74.93
  L 191.60 78.55
  Q 191.61 78.95 191.20 78.98
  L 190.84 78.99
  A 0.66 0.66 0.0 0 1 190.14 78.33
  L 190.17 68.32
  Q 190.17 66.73 191.76 66.82
  Q 193.49 66.92 195.12 67.22
  Q 197.44 67.64 197.73 69.97
  C 198.16 73.40 195.28 74.67 192.24 74.28
  A 0.65 0.65 0.0 0 0 191.51 74.93
  Z
  M 191.50 68.65
  L 191.52 72.65
  A 0.33 0.33 0.0 0 0 191.85 72.98
  L 193.73 72.97
  A 2.51 2.08 -0.3 0 0 196.23 70.88
  L 196.23 70.38
  A 2.51 2.08 -0.3 0 0 193.71 68.31
  L 191.83 68.32
  A 0.33 0.33 0.0 0 0 191.50 68.65
  Z"
/>
<path fill="#535353" d="
  M 204.29 77.93
  L 204.68 77.95
  Q 207.68 78.07 207.68 75.07
  L 207.68 67.52
  Q 207.68 66.96 208.23 66.95
  L 208.77 66.95
  A 0.56 0.56 0.0 0 1 209.34 67.51
  L 209.31 74.34
  Q 209.29 78.75 204.91 79.25
  Q 204.58 79.29 204.24 79.24
  Q 199.92 78.65 199.93 74.30
  L 199.95 67.25
  Q 199.95 66.94 200.26 66.95
  L 201.26 67.00
  Q 201.52 67.01 201.52 67.26
  L 201.51 75.04
  Q 201.51 77.82 204.29 77.93
  Z"
/>
<path fill="#535353" d="
  M 214.08 77.69
  L 218.70 77.67
  A 0.29 0.29 0.0 0 1 218.99 77.94
  L 219.06 78.73
  A 0.29 0.29 0.0 0 1 218.77 79.05
  L 212.76 79.05
  A 0.29 0.29 0.0 0 1 212.47 78.76
  L 212.46 67.34
  A 0.29 0.29 0.0 0 1 212.74 67.05
  L 213.51 67.04
  A 0.29 0.29 0.0 0 1 213.81 67.33
  L 213.79 77.40
  A 0.29 0.29 0.0 0 0 214.08 77.69
  Z"
/>
<rect fill="#535353" x="221.13" y="67.04" width="1.44" height="11.94" rx="0.44"/>
<path fill="#535353" d="
  M 227.46 77.70
  L 232.79 77.69
  A 0.56 0.56 0.0 0 1 233.36 78.28
  L 233.35 78.60
  Q 233.34 79.03 232.91 79.03
  L 225.73 79.07
  A 0.88 0.88 0.0 0 1 224.99 77.70
  L 230.95 68.74
  A 0.28 0.28 0.0 0 0 230.72 68.30
  L 225.41 68.33
  Q 224.99 68.33 224.98 67.91
  L 224.97 67.36
  Q 224.97 66.94 225.39 66.94
  L 232.49 66.95
  A 0.70 0.70 0.0 0 1 233.07 68.04
  L 227.10 77.03
  Q 226.65 77.70 227.46 77.70
  Z"
/>
<rect fill="#535353" x="-0.70" y="-5.98" transform="translate(236.15,73.01) rotate(-0.1)" width="1.40" height="11.96" rx="0.44"/>
<path fill="#535353" d="
  M 241.57 77.69
  L 246.37 77.71
  A 0.27 0.27 0.0 0 1 246.63 78.04
  L 246.44 78.80
  A 0.27 0.27 0.0 0 1 246.18 79.00
  L 240.22 79.08
  A 0.27 0.27 0.0 0 1 239.95 78.81
  L 239.94 67.22
  A 0.27 0.27 0.0 0 1 240.21 66.95
  L 246.16 66.97
  A 0.27 0.27 0.0 0 1 246.42 67.20
  L 246.54 68.00
  A 0.27 0.27 0.0 0 1 246.28 68.31
  L 241.56 68.32
  A 0.27 0.27 0.0 0 0 241.29 68.59
  L 241.35 71.88
  A 0.27 0.27 0.0 0 0 241.61 72.14
  L 246.03 72.21
  A 0.27 0.27 0.0 0 1 246.30 72.44
  L 246.37 73.04
  A 0.27 0.27 0.0 0 1 246.10 73.34
  L 241.61 73.34
  A 0.27 0.27 0.0 0 0 241.34 73.61
  L 241.30 77.42
  A 0.27 0.27 0.0 0 0 241.57 77.69
  Z"
/>
<path fill="#535353" d="
  M 268.79 74.52
  L 268.85 78.56
  Q 268.85 78.97 268.45 78.98
  L 267.99 78.99
  Q 267.47 79.01 267.47 78.49
  L 267.47 67.54
  Q 267.47 66.97 268.04 66.95
  C 270.95 66.83 275.18 66.46 274.97 70.74
  Q 274.87 72.76 273.10 73.46
  Q 272.58 73.67 272.88 74.14
  L 275.57 78.41
  Q 275.84 78.84 275.35 78.98
  L 274.95 79.09
  A 0.85 0.85 0.0 0 1 274.01 78.74
  Q 272.86 77.04 271.98 75.11
  C 271.47 73.99 270.33 73.92 269.26 74.01
  Q 268.78 74.04 268.79 74.52
  Z
  M 268.79 68.75
  L 268.75 72.21
  A 0.46 0.46 0.0 0 0 269.20 72.68
  L 271.35 72.70
  A 2.11 1.83 0.7 0 0 273.49 70.90
  L 273.49 70.18
  A 2.11 1.83 0.7 0 0 271.41 68.32
  L 269.26 68.30
  A 0.46 0.46 0.0 0 0 268.79 68.75
  Z"
/>
<path fill="#535353" d="
  M 283.80 77.66
  L 288.51 77.71
  A 0.29 0.29 0.0 0 1 288.78 77.93
  L 288.95 78.61
  A 0.29 0.29 0.0 0 1 288.68 78.97
  L 282.53 79.07
  A 0.29 0.29 0.0 0 1 282.24 78.79
  L 282.08 67.37
  A 0.29 0.29 0.0 0 1 282.36 67.08
  L 283.28 67.03
  A 0.29 0.29 0.0 0 1 283.59 67.33
  L 283.51 77.37
  A 0.29 0.29 0.0 0 0 283.80 77.66
  Z"
/>
<path fill="#ffffff" d="
  M 116.51 68.64
  A 0.33 0.33 0.0 0 1 116.84 68.31
  L 118.87 68.31
  A 2.32 2.05 -0.0 0 1 121.19 70.36
  L 121.19 70.92
  A 2.32 2.05 -0.0 0 1 118.87 72.97
  L 116.84 72.97
  A 0.33 0.33 0.0 0 1 116.51 72.64
  L 116.51 68.64
  Z"
/>
<path fill="#ffffff" d="
  M 126.52 68.76
  A 0.41 0.41 0.0 0 1 126.93 68.35
  L 129.12 68.35
  A 2.12 1.81 -0.1 0 1 131.24 70.16
  L 131.24 70.88
  A 2.12 1.81 -0.1 0 1 129.12 72.69
  L 126.93 72.69
  A 0.41 0.41 0.0 0 1 126.52 72.28
  L 126.52 68.76
  Z"
/>
<path fill="#ffffff" d="
  M 170.30 68.60
  A 0.32 0.32 0.0 0 1 170.62 68.28
  L 172.78 68.29
  A 4.28 4.18 -89.9 0 1 176.95 72.58
  L 176.95 73.46
  A 4.28 4.18 -89.9 0 1 172.76 77.73
  L 170.60 77.72
  A 0.32 0.32 0.0 0 1 170.28 77.40
  L 170.30 68.60
  Z"
/>
<path fill="#ffffff" d="
  M 191.50 68.65
  A 0.33 0.33 0.0 0 1 191.83 68.32
  L 193.71 68.31
  A 2.51 2.08 -0.3 0 1 196.23 70.38
  L 196.23 70.88
  A 2.51 2.08 -0.3 0 1 193.73 72.97
  L 191.85 72.98
  A 0.33 0.33 0.0 0 1 191.52 72.65
  L 191.50 68.65
  Z"
/>
<path fill="#ffffff" d="
  M 268.79 68.75
  A 0.46 0.46 0.0 0 1 269.26 68.30
  L 271.41 68.32
  A 2.11 1.83 0.7 0 1 273.49 70.18
  L 273.49 70.90
  A 2.11 1.83 0.7 0 1 271.35 72.70
  L 269.20 72.68
  A 0.46 0.46 0.0 0 1 268.75 72.21
  L 268.79 68.75
  Z"
/>
<path fill="#ffffff" d="
  M 155.89 73.29
  L 157.31 69.75
  Q 157.65 68.92 157.94 69.77
  L 159.18 73.30
  Q 159.41 73.97 158.71 73.97
  L 156.36 73.98
  Q 155.61 73.98 155.89 73.29
  Z"
/>
<circle fill="#535353" cx="263.51" cy="78.10" r="1.13"/>
<circle fill="#535353" cx="278.27" cy="78.15" r="1.13"/>
<ellipse fill="#535353" cx="0.00" cy="0.00" transform="translate(291.50,78.10) rotate(92.9)" rx="1.21" ry="1.05"/>
<path fill="#2b50a7" d="
  M 56.09 88.05
  Q 42.76 95.69 28.12 90.26
  Q 32.95 88.19 34.17 86.94
  C 38.45 82.56 43.12 78.99 48.69 82.60
  A 9.84 7.72 76.9 0 1 50.02 83.67
  Q 51.40 85.01 50.76 86.26
  Q 50.29 87.16 49.55 86.47
  Q 46.78 83.90 44.48 87.14
  A 2.01 2.00 -52.5 0 0 44.83 89.83
  C 47.24 91.87 50.56 89.35 52.35 87.52
  C 53.50 86.34 55.34 86.32 56.09 88.05
  Z"
/>
</svg>
